<svg width="13" height="9" viewBox="0 0 13 9" fill="none" xmlns="http://www.w3.org/2000/svg">
<path d="M12.9217 4.15038C12.8696 4.04235 12.8043 3.94632 12.713 3.86229L8.8 0.261087C8.42174 -0.087029 7.79565 -0.087029 7.41739 0.261087C7.03913 0.609203 7.03913 1.18539 7.41739 1.53351L9.66087 3.5982H0.978261C0.443478 3.5982 0 4.00633 0 4.4985C0 4.99066 0.443478 5.3988 0.978261 5.3988H9.66087L7.41739 7.46349C7.03913 7.8116 7.03913 8.3878 7.41739 8.73591C7.61304 8.91597 7.86087 9 8.1087 9C8.35652 9 8.60435 8.91597 8.8 8.73591L12.713 5.13471C12.8043 5.05068 12.8696 4.95465 12.9217 4.84662C13.0261 4.63054 13.0261 4.37846 12.9217 4.16239V4.15038Z" fill="black"/>
</svg>
